<svg width="932" height="150" viewBox="0 0 932 150" fill="none" xmlns="http://www.w3.org/2000/svg">
<g clip-path="url(#clip0_2_89)">
<path d="M203.458 0C269.462 0 269.462 0 284.058 7.963L286.099 9.035C291.998 12.23 297.215 15.942 302.105 20.549L304.493 22.773C318.337 36.827 323.951 56.187 323.94 75.537C323.648 94.013 317.767 112.488 304.866 126.115C276.64 152.337 240.951 146.92 203.459 146.92L203.458 0ZM238.395 29.795V118.151C253.899 118.151 265.106 116.56 276.383 105.978C285.416 96.353 288.307 84.215 288.04 71.248C286.836 58.352 283.146 47.443 273.718 38.27C262.518 29.24 253.392 29.795 238.395 29.795Z" fill="#FEFEFE"/>
<path d="M704.499 -0.116996C706.146 -0.116392 707.793 -0.110725 709.44 -0.0999962L712.063 -0.0949962C714.837 -0.0899962 717.612 -0.0759962 720.386 -0.0639962C722.263 -0.0586629 724.14 -0.0536629 726.016 -0.0489962C730.627 -0.0376629 735.237 -0.0209962 739.846 0.00100379C749.699 25.594 759.114 51.347 768.58 77.085C773.249 89.7719 777.929 102.455 782.619 115.134L786.835 126.536L787.736 128.977L788.587 131.277L789.393 133.464C789.948 134.948 790.514 136.427 791.092 137.9C793.283 143.523 793.283 143.523 793.283 146.922H757.318L753.207 135.813L751.906 132.323L750.895 129.564L749.851 126.744C749.097 124.318 749.097 124.318 749.097 121.236L691.552 122.264L682.304 145.894C681.276 146.922 681.276 146.922 677.858 147.039C676.341 147.039 674.824 147.033 673.307 147.022L670.892 147.017C668.338 147.012 665.783 146.998 663.228 146.986C661.499 146.981 659.772 146.976 658.044 146.971C653.799 146.959 649.554 146.942 645.309 146.92C651.219 129.589 657.674 112.469 664.155 95.346C665.628 91.4507 667.1 87.555 668.572 83.659L673.962 69.398C677.571 59.8524 681.17 50.303 684.759 40.75C686.424 36.3207 688.09 31.8907 689.758 27.46C690.651 25.0833 691.544 22.7063 692.436 20.329C693.661 17.067 694.887 13.8063 696.115 10.547L697.204 7.635L698.193 5.017L699.049 2.74C700.402 -0.463996 700.63 0.00400379 704.502 -0.117996M719.297 36.986C716.75 44.6033 714.204 52.2213 711.66 59.84L708.114 70.451C706.973 73.8617 705.834 77.2723 704.695 80.683L702.749 86.503L701.564 90.056L700.513 93.202C699.721 95.302 699.721 95.302 699.772 96.576H739.847C737.552 87.989 737.552 87.989 734.904 79.559L733.907 76.631L732.866 73.608L731.774 70.407C730.634 67.0783 729.493 63.7503 728.35 60.423L726.016 53.599C724.122 48.0603 722.224 42.5227 720.322 36.986H719.297Z" fill="#FEFEFE"/>
<path d="M405.824 56.636C407.944 58.562 407.944 58.562 409.998 61.645L411.026 51.371H439.798V147.947H411.026L409.998 135.618L407.172 139.343C400.758 146.437 394.275 149.889 384.781 150.524C382.697 150.587 380.613 150.627 378.528 150.644L375.521 150.678C362.888 150.428 354.079 145.152 345.128 136.613C335.242 126.261 330.982 114.377 330.617 100.238C330.992 84.723 335.21 70.823 346.288 59.591C363.705 44.292 387.38 43.297 405.823 56.637M367.32 81.423C362.528 87.132 360.296 93.847 360.381 101.224C361.106 107.518 364.384 113.765 368.894 118.153C375.622 122.76 381.676 125.088 389.896 123.74C396.95 121.924 401.917 117.873 405.823 111.795C409.299 105.824 409.745 100.3 408.97 93.495C406.744 86.513 402.965 80.866 396.639 77.056C386.304 72.458 375.752 73.47 367.321 81.423" fill="#FEFEFE"/>
<path d="M570.494 47.045C581.195 46.546 590.796 49.809 599.069 56.508C601.703 58.948 601.703 58.948 603.18 60.618L604.208 51.371H632.98V147.947H604.208L603.18 135.618L599.969 139.471C594.788 145.371 589.233 149.48 581.205 150.231C578.336 150.352 575.48 150.383 572.609 150.387L569.687 150.463C557.956 150.513 547.842 145.661 539.338 137.673C527.006 124.57 524.448 111.294 524.763 93.948C525.326 80.325 531.103 67.842 541.052 58.447C549.771 51.764 559.623 48.091 570.494 47.045ZM560.768 82.241C556.18 87.431 553.56 93.676 553.855 100.687C555.03 108.429 558.212 114.065 564.131 119.18C569.574 122.869 575.349 124.972 581.989 123.936C589.483 122.094 595.068 118.428 599.425 112C603.087 105.243 603.773 98.995 601.861 91.575C599.749 85.305 595.255 80.654 589.82 77.056C578.871 72.119 569.454 74.005 560.767 82.242" fill="#FEFEFE"/>
<path d="M468.568 0H499.395V51.37H519.947V77.055H499.395V147.946H468.568V77.055H457.265V51.37H468.568V0Z" fill="white"/>
<path d="M881.649 0H913.504V51.37H932V77.055H913.504V147.946H881.649V0Z" fill="#FEFEFE"/>
<path d="M2.05533 0H141.804C139.624 4.358 136.933 7.236 133.543 10.629L131.618 12.579C129.518 14.7011 127.414 16.8188 125.305 18.932L120.92 23.345C117.857 26.4237 114.79 29.499 111.72 32.571C107.782 36.5181 103.855 40.4755 99.9381 44.443C96.9247 47.4828 93.9042 50.5154 90.8766 53.541C89.4244 54.9971 87.9765 56.4574 86.5329 57.922C84.5164 59.9621 82.4897 61.9921 80.4529 64.012L78.6447 65.867C76.9594 67.521 76.9594 67.521 73.9819 69.867C69.1331 69.396 66.4267 65.812 63.1792 62.515L61.1728 60.514C58.9875 58.3287 56.8078 56.1376 54.6338 53.941L50.0901 49.391C46.9175 46.2137 43.749 43.032 40.5845 39.846C36.519 35.7516 32.4474 31.6632 28.3696 27.581C25.2431 24.451 22.1192 21.3187 18.9981 18.184L14.4883 13.662C12.3943 11.5606 10.3027 9.45697 8.21332 7.351L6.31201 5.446C2.05533 1.146 2.05533 1.146 2.05533 0Z" fill="#FEFEFE"/>
<path d="M-5.49826e-06 5.137C4.75176 9.21 9.27849 13.24 13.6692 17.66L15.4955 19.485C17.46 21.4512 19.4226 23.4192 21.3834 25.389L25.4991 29.509C29.0897 33.1043 32.6789 36.7017 36.2668 40.301C39.9381 43.9797 43.61 47.6573 47.2826 51.334C54.4731 58.5347 61.6616 65.7383 68.8481 72.945C67.1448 77.353 63.8273 80.301 60.5387 83.558L58.5984 85.502C56.4833 87.6185 54.3642 89.7312 52.2414 91.84L47.8327 96.245C44.7569 99.319 41.6774 102.39 38.5942 105.459C34.634 109.402 30.6784 113.35 26.7273 117.303C23.6961 120.333 20.663 123.361 17.6278 126.387L13.2501 130.758C11.2177 132.787 9.183 134.814 7.14614 136.838L5.30385 138.682C1.14118 142.81 1.14118 142.81 -0.00300598 142.81L-5.49826e-06 5.137Z" fill="#FEFEFE"/>
<path d="M874.456 51.37V77.055L867.328 76.926C858.455 76.882 850.604 77.195 843.629 83.219C837.063 91.589 836.128 99.787 836.011 110.121L835.95 113.407C835.888 116.851 835.841 120.295 835.794 123.738C835.754 126.082 835.714 128.425 835.674 130.768C835.573 136.495 835.492 142.221 835.409 147.947H803.553V51.37H835.409L836.437 68.836L839.07 64.598C843.406 58.09 848.738 52.631 856.539 50.728C862.462 50.082 868.753 49.469 874.456 51.37Z" fill="#FEFEFE"/>
<path d="M108.922 39.041C111.956 40.408 114.084 41.895 116.423 44.253L118.355 46.185L120.402 48.265L122.528 50.398C124.761 52.645 126.991 54.8957 129.218 57.15C130.733 58.676 132.25 60.201 133.767 61.725C137.479 65.461 141.187 69.2013 144.889 72.946C143.546 75.901 142.105 78.053 139.837 80.368L138.006 82.247L136.033 84.235L133.999 86.298C132.58 87.732 131.159 89.163 129.734 90.591C127.554 92.7882 125.384 94.9955 123.225 97.213C121.844 98.6035 120.462 99.9929 119.078 101.381L117.119 103.401L115.269 105.231L113.655 106.86C112.005 107.879 112.005 107.879 109.959 107.717C107.62 106.738 106.29 105.652 104.487 103.876L102.545 101.984L100.488 99.928L98.3558 97.82C96.8723 96.3473 95.3924 94.8713 93.9161 93.392C91.6457 91.1277 89.3636 88.875 87.07 86.634C85.6318 85.2013 84.1956 83.768 82.7613 82.334L80.673 80.296L78.7797 78.375L77.0944 76.697C76.0372 75 76.0372 75 76.1913 72.946C77.1904 70.598 78.2926 69.291 80.1069 67.501L82.0392 65.569L84.1355 63.521L86.2729 61.396C88.5291 59.1608 90.7908 56.9311 93.058 54.707C94.5902 53.1917 96.1205 51.6757 97.6487 50.159C101.399 46.445 105.157 42.738 108.921 39.038" fill="#FEFEFE"/>
<path d="M145.915 80.137V146.918H78.0946C82.1022 142.243 86.0619 137.772 90.3986 133.439L92.1528 131.675C94.0423 129.777 95.934 127.882 97.8277 125.988L101.795 122.011C104.555 119.246 107.315 116.484 110.077 113.724C113.622 110.177 117.163 106.627 120.698 103.072C123.421 100.339 126.146 97.609 128.875 94.883C130.183 93.574 131.49 92.2633 132.794 90.951C134.61 89.127 136.43 87.307 138.254 85.491L139.892 83.837C143.627 80.135 143.627 80.135 145.916 80.135" fill="#FEFEFE"/>
<path d="M103.784 114.041C97.1486 127.485 87.4631 141.432 72.9568 146.918C50.1791 151.585 25.051 148.701 2.05434 146.918L3.27153 145.567C6.67808 141.704 9.40352 137.881 11.9859 133.405C31.8491 103.412 72.2916 111.846 103.784 114.041Z" fill="#FEFEFE"/>
<path d="M145.914 4.11V67.809C139.551 62.356 133.532 56.75 127.586 50.87C126.436 49.7389 125.282 48.6132 124.122 47.493C122.438 45.8606 120.764 44.2179 119.1 42.565L117.518 41.052C116.094 39.618 116.094 39.618 114.058 36.986C114.406 33.737 115.537 32.041 117.811 29.769L119.536 28.024L121.408 26.181L123.324 24.264C124.66 22.93 126 21.6 127.342 20.274C129.405 18.236 131.453 16.186 133.499 14.133L137.399 10.255L139.264 8.387C143.621 4.107 143.621 4.107 145.913 4.107" fill="#FEFEFE"/>
<path d="M70.9024 77.055C73.7819 78.368 75.8892 79.73 78.1206 81.967L79.8659 83.703L81.7092 85.568L83.6265 87.487C84.9587 88.823 86.2889 90.1607 87.6171 91.5C89.6584 93.56 91.7078 95.612 93.7591 97.663L97.6377 101.557L99.506 103.429C103.787 107.759 103.787 107.759 103.787 108.906H40.0755C44.0371 104.286 47.9327 99.878 52.2384 95.617L53.8707 93.989C55.5649 92.303 57.2609 90.618 58.9585 88.934L62.4391 85.468C65.2582 82.662 68.08 79.8577 70.9044 77.055" fill="#FEFEFE"/>
</g>
<defs>
<clipPath id="clip0_2_89">
<rect width="932" height="150" fill="white"/>
</clipPath>
</defs>
</svg>
