<svg width="765" height="150" viewBox="0 0 765 150" fill="none" xmlns="http://www.w3.org/2000/svg">
<g clip-path="url(#clip0_2_55)">
<path d="M48.355 -0.0129846H49.084L49.821 -0.0179846C51.2075 -0.0336011 52.5923 0.084951 53.956 0.336015L54.176 0.376015C57.289 0.971015 60.274 2.18901 62.688 4.27302L62.835 4.39902C63.615 5.08302 64.35 5.81502 64.967 6.65202L65.203 6.96602C67.311 9.77402 68.359 13.448 68.375 16.937V17.162L68.377 17.881V18.127C68.377 19.323 68.356 20.498 68.171 21.683L68.139 21.897C67.268 27.392 64.379 32.083 60.662 36.127L60.311 36.524C59.795 37.1156 59.2556 37.6864 58.694 38.235C58.5746 38.3583 58.4592 38.4853 58.348 38.616C58.059 38.948 57.747 39.257 57.436 39.568L57.133 39.871C56.8237 40.1837 56.5027 40.485 56.17 40.775C55.9773 40.9484 55.7907 41.1307 55.61 41.322C55.3033 41.6326 54.9841 41.9305 54.653 42.215L54.447 42.394C53.591 43.1447 52.7097 43.865 51.803 44.555L51.087 45.107C50.6015 45.4884 50.106 45.8569 49.601 46.212L49.089 46.582C48.415 47.068 47.7357 47.547 47.051 48.019L46.217 48.603C45.8071 48.8904 45.3951 49.1747 44.981 49.456C44.5397 49.76 44.1017 50.0693 43.667 50.384C43.3223 50.6327 42.9737 50.8757 42.621 51.113C42.1949 51.4023 41.7764 51.7028 41.366 52.014C41.1068 52.2107 40.8441 52.4028 40.578 52.59C40.015 52.987 39.471 53.41 38.921 53.831L38.361 54.252C37.057 55.2178 35.8055 56.2526 34.612 57.352L34.135 57.778C33.8292 58.0554 33.5314 58.3415 33.242 58.636L33.105 58.773C30.624 61.262 29.064 64.247 29.061 67.811V67.958C29.061 68.682 29.093 69.374 29.267 70.079L29.296 70.207C29.569 71.365 30.103 72.476 30.859 73.393L30.945 73.497C32.38 75.229 34.611 76.264 36.826 76.514C39.575 76.637 42.337 75.329 44.515 73.779L44.668 73.669C45.252 73.251 45.824 72.819 46.368 72.344C46.554 72.1867 46.7407 72.032 46.928 71.88C47.16 71.6927 47.38 71.4917 47.588 71.277C47.7007 71.1663 47.8187 71.059 47.942 70.955C48.196 70.7317 48.4417 70.4994 48.679 70.258L48.807 70.132L49.072 69.867L49.474 69.468L49.734 69.208L49.852 69.09C50.0891 68.8519 50.3173 68.6051 50.536 68.35C50.704 68.1587 50.8764 67.971 51.053 67.787C51.3463 67.4744 51.6334 67.1554 51.914 66.83L52.085 66.629C52.7177 65.8963 53.3407 65.1553 53.954 64.406L54.147 64.17C55.082 63.0187 56.0038 61.8566 56.912 60.684L57.362 60.105C57.7919 59.5548 58.2155 58.9997 58.633 58.44C58.933 58.0393 59.2377 57.6423 59.547 57.249C59.8277 56.8897 60.103 56.5277 60.373 56.163C60.6717 55.7623 60.9747 55.3673 61.282 54.978C61.5034 54.696 61.724 54.411 61.944 54.123L62.941 52.828L63.592 51.986C63.896 51.5927 64.2027 51.1993 64.512 50.806L64.772 50.476C65.156 49.986 65.5457 49.4997 65.941 49.017L66.386 48.465C66.888 47.8323 67.401 47.2067 67.925 46.588L68.456 45.95C68.7707 45.5673 69.0897 45.19 69.413 44.818L69.705 44.475C70.0679 44.0473 70.4397 43.6272 70.82 43.215L71.195 42.794C71.4863 42.4633 71.783 42.137 72.085 41.815L72.38 41.493C72.6853 41.157 72.999 40.828 73.321 40.506C73.5083 40.324 73.688 40.1337 73.86 39.935C74.3421 39.3733 74.8695 38.8522 75.437 38.377C75.6123 38.2163 75.783 38.051 75.949 37.881C76.1917 37.6343 76.4447 37.3967 76.708 37.168C76.8473 37.0467 76.983 36.9243 77.115 36.801C77.4407 36.499 77.7769 36.2085 78.123 35.93C78.3323 35.7567 78.5387 35.5817 78.742 35.405C79.182 35.0277 79.6324 34.664 80.093 34.314L80.232 34.207C82.0093 32.8267 83.9027 31.6028 85.891 30.549L86.084 30.447C89.1586 28.8373 92.5137 27.8331 95.967 27.489L96.104 27.476C102.181 26.886 108.553 28.776 114.207 33.102C115.013 33.7729 115.787 34.4806 116.527 35.223L116.69 35.386C117.002 35.6952 117.302 36.0172 117.588 36.351L117.77 36.557C118.262 37.1296 118.734 37.72 119.183 38.327L119.285 38.464C120.234 39.743 121.082 41.084 121.862 42.473L121.972 42.669C124.495 47.18 126.177 52.211 127.665 62.18H139.143V78.314L127.726 78.378L127.343 82.46C126.512 89.384 125.131 96.272 122.368 102.995L122.317 103.118C121.767 104.44 121.159 105.733 120.518 107.015L120.414 107.221C119.115 109.798 117.546 112.23 115.734 114.475L115.589 114.654C115.326 114.977 115.06 115.297 114.79 115.614L114.707 115.713C114.093 116.429 113.436 117.105 112.768 117.772L112.382 118.161C111.98 118.578 111.552 118.968 111.1 119.33C110.95 119.449 110.807 119.577 110.671 119.711C110.213 120.129 109.706 120.491 109.204 120.859L108.751 121.197C104.554 124.299 99.5746 126.168 94.373 126.593L94.245 126.603C88.8059 127.048 83.3902 125.503 79.004 122.256L78.9 122.178C77.3372 121.037 75.9355 119.69 74.733 118.174L74.629 118.04C73.5748 116.676 72.6697 115.204 71.929 113.647L71.868 113.516C71.0964 111.842 70.5432 110.077 70.222 108.262L70.185 108.056C70.0046 106.968 69.9203 105.866 69.933 104.763V104.578C69.9492 102.903 70.1716 101.237 70.595 99.617L70.651 99.395C71.608 95.649 73.22 92.036 75.186 88.71L75.312 88.498C75.9361 87.4419 76.5945 86.4063 77.286 85.393L77.401 85.224C77.939 84.4413 78.5003 83.6754 79.085 82.926L79.385 82.535C79.9104 81.8524 80.4557 81.1837 81.021 80.529L81.302 80.199C81.701 79.7296 82.1114 79.2702 82.533 78.821L82.788 78.542C83.276 78.003 83.785 77.488 84.3 76.973L84.734 76.536L85.015 76.255L85.143 76.127C85.3895 75.8812 85.6453 75.645 85.91 75.419C86.0854 75.2657 86.2577 75.1077 86.427 74.945C86.7377 74.657 87.0587 74.381 87.39 74.117C87.5527 73.983 87.71 73.8447 87.862 73.702C88.213 73.383 88.583 73.093 88.959 72.804L89.358 72.493C89.9713 72.0107 90.5962 71.5432 91.232 71.091L91.532 70.877C93.6758 69.3685 95.9275 68.0195 98.269 66.841L98.454 66.745C102.544 64.632 106.972 63.229 111.472 62.312L111.609 62.285C113.038 61.996 113.038 61.996 113.384 61.996C113.374 60.105 113.374 60.105 113.129 58.234L113.092 58.041C112.797 56.5832 112.317 55.169 111.663 53.833L111.594 53.691C110.901 52.3112 109.999 51.0466 108.92 49.942L108.829 49.846C106.383 47.269 102.682 45.78 99.158 45.665C97.753 45.63 96.345 45.62 94.956 45.861L94.734 45.898C90.829 46.6 87.276 48.411 84.17 50.835L83.94 51.012C83.2574 51.5427 82.595 52.0997 81.953 52.683L81.575 53.015C80.827 53.669 80.122 54.366 79.419 55.066L79.301 55.184C78.741 55.742 78.741 55.742 78.212 56.329C77.99 56.589 77.748 56.833 77.515 57.082C77.2404 57.3747 76.9723 57.6734 76.711 57.978L76.617 58.088L76.349 58.402L76.148 58.635L76.046 58.753L75.757 59.088C75.2604 59.6673 74.7707 60.2537 74.288 60.847L74.178 60.981C73.7267 61.5329 73.2817 62.09 72.843 62.652L72.58 62.987C72.2149 63.4502 71.8529 63.9159 71.494 64.384L71.121 64.866L70.778 65.311L70.666 65.458C70.1707 66.1013 69.6837 66.7503 69.205 67.405C68.9264 67.7837 68.642 68.161 68.352 68.537C68.0373 68.9444 67.7307 69.3573 67.432 69.776C67.0907 70.2513 66.7403 70.7213 66.381 71.186C66.0964 71.5584 65.8157 71.9337 65.539 72.312C65.1604 72.8247 64.776 73.334 64.386 73.84L63.772 74.642L63.644 74.811L62.883 75.822C62.5363 76.2887 62.1807 76.749 61.816 77.203C61.584 77.4944 61.3543 77.7893 61.127 78.088C60.8057 78.508 60.476 78.9217 60.138 79.329C59.9072 79.6075 59.6812 79.8899 59.46 80.176C59.1777 80.5346 58.8853 80.8851 58.583 81.227C58.383 81.4546 58.1873 81.686 57.996 81.921C57.49 82.5377 56.969 83.1393 56.433 83.726L56.095 84.109C55.809 84.4343 55.5167 84.7553 55.218 85.072L54.939 85.377C54.424 85.943 53.888 86.484 53.346 87.026L52.898 87.474L52.609 87.763L52.478 87.897C52.2292 88.1467 51.9706 88.3866 51.703 88.616C51.5403 88.7587 51.3797 88.9053 51.221 89.056C50.9254 89.3295 50.6195 89.5917 50.304 89.842L49.846 90.228C45.81 93.712 40.462 96.525 35.034 96.571L34.844 96.573C30.803 96.605 27.069 95.71 23.403 94.004L23.232 93.924C21.5755 93.136 20.0433 92.1098 18.684 90.878L18.577 90.782C17.9106 90.2001 17.286 89.5719 16.708 88.902L16.555 88.728C15.4658 87.4435 14.514 86.0486 13.715 84.566L13.629 84.411C12.093 81.63 11.183 78.581 10.719 75.446L10.687 75.24C10.3476 72.939 10.3584 70.5998 10.719 68.302L10.751 68.093C11.1289 65.9119 11.8049 63.793 12.76 61.796L12.843 61.617C13.975 59.217 15.506 56.996 17.196 54.955L17.59 54.47C17.8187 54.1913 18.0553 53.9197 18.3 53.655L18.648 53.261C19.0893 52.7537 19.548 52.264 20.024 51.792C20.1433 51.6687 20.2587 51.5427 20.37 51.414C20.772 50.9514 21.2073 50.5223 21.676 50.127C21.8547 49.9643 22.028 49.7953 22.196 49.62C22.4387 49.3733 22.6917 49.1357 22.955 48.907C23.0943 48.7857 23.23 48.6633 23.362 48.54C23.6922 48.235 24.0331 47.9418 24.384 47.661C24.5627 47.511 24.737 47.3573 24.907 47.2C25.2143 46.9193 25.5307 46.6504 25.856 46.393L26.207 46.104C26.7057 45.6873 27.2133 45.2833 27.73 44.892C28.0232 44.6696 28.3129 44.4426 28.599 44.211C29.1 43.806 29.621 43.425 30.141 43.045L30.755 42.592C31.7506 41.8568 32.7564 41.1354 33.772 40.428L34.233 40.104C35.357 39.3189 36.4887 38.5448 37.628 37.782C39.229 36.704 39.229 36.704 40.814 35.596L40.959 35.494C41.667 34.988 42.3623 34.4697 43.045 33.939L43.165 33.845C43.6425 33.4757 44.1109 33.0949 44.57 32.703C44.7487 32.551 44.931 32.401 45.117 32.253C45.4187 32.0055 45.7112 31.747 45.994 31.478C46.1655 31.3168 46.3406 31.1595 46.519 31.006C46.9 30.674 47.254 30.312 47.61 29.952L47.983 29.579C48.369 29.193 48.752 28.81 49.101 28.388L49.205 28.265C50.052 27.272 50.8068 26.2039 51.46 25.074L51.532 24.954C52.664 23.01 53.186 20.679 52.626 18.472C52.216 16.989 51.334 15.552 49.993 14.744C48.448 13.907 46.751 13.983 45.107 14.457C42.366 15.294 39.869 17.053 37.788 18.989L37.389 19.343C37.0837 19.613 36.7887 19.8937 36.504 20.185L36.231 20.456C35.8877 20.7953 35.565 21.1557 35.263 21.537C35.079 21.7603 34.8897 21.9767 34.695 22.186L34.347 22.58C34.0417 22.9267 33.7307 23.269 33.414 23.607L33.307 23.725C32.8423 24.227 32.3697 24.7203 31.889 25.205L31.758 25.339C31.5082 25.5888 31.2487 25.8286 30.98 26.058C30.8628 26.1612 30.75 26.2693 30.642 26.382C30.4063 26.6142 30.1621 26.8377 29.91 27.052L29.709 27.226L29.133 27.719L28.806 28C28.3725 28.3717 27.9272 28.7296 27.471 29.073L27.125 29.336C22.071 33.168 16.029 35.995 9.57601 35.984H9.43901C6.95529 35.9684 4.48997 35.5565 2.13601 34.764L1.91101 34.689C1.25701 34.467 0.643014 34.198 0.00201416 33.93V18.75C0.369014 18.822 0.726014 18.895 1.08801 18.991L1.33401 19.055L1.46201 19.087C2.93135 19.4677 4.42168 19.7377 5.93301 19.897L6.17401 19.924C6.47729 19.951 6.78155 19.9653 7.08601 19.967C10.261 20.036 13.316 19.42 16.135 17.926L16.406 17.784C18.833 16.521 20.981 14.759 23.044 12.978L23.379 12.691C23.8067 12.3271 24.2268 11.9544 24.639 11.573C24.821 11.407 25.005 11.2433 25.191 11.082L25.636 10.683L26.333 10.066L26.783 9.66401C27.1223 9.35868 27.4647 9.05835 27.81 8.76301C28.2033 8.43235 28.5877 8.09168 28.963 7.74102C29.3266 7.3981 29.706 7.07241 30.1 6.76502L30.317 6.58602C34.528 3.14902 39.755 1.08402 48.356 -0.0119846M112.818 78.061C106.937 79.488 101.61 81.979 96.027 86.825L95.791 87.042C95.2219 87.5589 94.6779 88.1029 94.161 88.672L93.874 88.983C93.4774 89.4097 93.0965 89.8506 92.732 90.305L92.545 90.533C91.0478 92.359 89.743 94.3344 88.651 96.428L88.56 96.599C87.209 99.171 85.734 102.542 86.632 105.487L86.675 105.61L86.715 105.736C87.063 106.771 87.635 107.584 88.396 108.353L88.514 108.484C89.584 109.64 91.418 110.417 92.976 110.479C95.996 110.524 98.68 109.039 100.893 107.079L101.056 106.934L101.53 106.502L101.734 106.32C102.159 105.939 102.56 105.532 102.933 105.1L103.255 104.749C103.544 104.431 103.82 104.102 104.083 103.762L104.185 103.631C107.929 98.764 110.192 93 112.727 79.776L112.754 79.548L112.826 78.91L112.847 78.717L112.866 78.54L112.882 78.385C112.892 78.24 112.892 78.24 112.823 78.061M171.874 22.576H189.475V62.115H234.182V22.576H251.719V120.471H234.182V78.317H189.475V120.471H171.874V22.576ZM421.11 39.285H437.563C437.563 46.287 437.563 46.287 437.193 47.631L437.142 47.816C436.638 49.629 435.665 51.195 434.375 52.549L434.236 52.699C431.112 55.955 426.059 56.99 421.747 57.269H421.428V57.524L421.583 57.567C421.875 57.674 422.127 57.824 422.393 57.985L422.562 58.087C423.749 58.813 424.856 59.646 425.882 60.586C426.011 60.702 426.141 60.8173 426.273 60.932C426.754 61.3553 427.2 61.814 427.611 62.308L427.764 62.482C431.154 66.368 432.661 71.496 432.664 76.589V76.785C432.659 81.69 431.229 86.662 427.992 90.433L427.829 90.631C427.078 91.54 426.244 92.387 425.314 93.112L424.955 93.417C423.781 94.396 422.453 95.2 421.104 95.916L420.951 95.999C416.663 98.276 411.752 99.292 406.946 99.678L406.7 99.699C402.618 100.015 398.408 99.86 394.377 99.104C393.235 98.906 391.988 99.627 391.068 100.252C390.847 100.411 390.634 100.581 390.43 100.761L390.283 100.889C389.934 101.203 389.653 101.585 389.455 102.011C389.257 102.436 389.148 102.898 389.133 103.367C389.176 104.45 389.538 105.295 390.305 106.054L390.404 106.161C391.839 107.558 394.244 107.486 396.084 107.483L396.926 107.485L398.385 107.487L400.498 107.489L403.936 107.494L409.705 107.502H409.903L410.694 107.504L412.995 107.506L414.44 107.508H415.271C416.942 107.508 418.615 107.521 420.281 107.661L420.428 107.674C425.027 108.057 429.983 109.173 433.609 112.171L433.716 112.259C434.123 112.594 434.52 112.935 434.882 113.318L435.032 113.468L435.203 113.634L435.321 113.744C438.094 116.375 439.349 120.516 439.604 124.222L439.614 124.377C439.984 129.95 438.584 135.496 434.878 139.766C434.052 140.728 433.137 141.609 432.143 142.397L432.006 142.501C430.47 143.683 428.834 144.646 427.104 145.521L426.949 145.599C424.769 146.693 422.382 147.468 420.025 148.071L419.784 148.132C416.333 149.028 412.795 149.497 409.247 149.792L409.054 149.808C406.89 149.99 404.723 150.001 402.553 150.004H401.896C399.603 150.021 397.31 149.934 395.025 149.741L394.846 149.725C389.721 149.267 384.642 148.29 374.954 142.975L374.552 142.619C374.039 142.165 373.57 141.663 373.152 141.12L372.994 140.924C371.482 139.031 370.623 136.687 370.345 134.295L370.321 134.078C369.965 130.324 371.262 126.448 373.654 123.549L373.791 123.394L373.946 123.201C374.709 122.256 375.576 121.401 376.531 120.651L376.716 120.504C377.622 119.797 378.584 119.164 379.591 118.611L379.709 118.544C380.27 118.231 380.852 117.959 381.452 117.729L381.618 117.662L381.768 117.603C381.896 117.539 381.896 117.539 381.931 117.394L381.947 117.276L381.709 117.231C381.323 117.145 380.972 116.995 380.61 116.842L380.393 116.748C378.948 116.118 377.54 115.378 376.338 114.343L376.188 114.215C376.023 114.07 375.86 113.921 375.7 113.77L375.604 113.679C373.898 112.1 372.878 109.916 372.761 107.594C372.737 106.701 372.753 105.84 372.959 104.969L372.991 104.835C373.369 103.269 374.23 101.869 375.319 100.697L375.426 100.582C376.018 99.952 376.657 99.413 377.359 98.911L377.482 98.823C379.617 97.316 382.079 96.396 384.621 95.857L384.806 95.817C385.212 95.737 385.62 95.6833 386.031 95.656C386.01 95.487 385.988 95.418 385.854 95.31L385.707 95.227L385.546 95.133L385.372 95.034L385.018 94.828L384.847 94.726C384.534 94.5363 384.227 94.3358 383.927 94.125L383.804 94.039C382.376 93.057 381.04 91.9467 379.814 90.722L379.517 90.427C379.113 90.0267 378.734 89.6012 378.383 89.153L378.271 89.011C375.796 85.868 374.428 82.226 374.047 78.246L374.034 78.101C373.529 72.5193 375.218 66.9604 378.741 62.602C378.946 62.3627 379.157 62.1287 379.374 61.9C379.504 61.7597 379.631 61.6167 379.755 61.471C380.198 60.9694 380.678 60.5015 381.19 60.071L381.377 59.905C382.722 58.7468 384.191 57.7404 385.756 56.904L386.163 56.676C390.588 54.206 395.879 53.152 400.895 52.865L401.029 52.857C402.134 52.796 403.236 52.79 404.341 52.788L405.325 52.786L408.119 52.776L409.669 52.771L410.484 52.769C413.268 52.767 416.338 52.659 418.43 50.57L418.577 50.425C421.218 47.676 420.98 42.787 421.111 39.285M400.321 64.031L400.136 64.063C398.372 64.387 396.671 64.993 395.22 66.072L395.041 66.203C394.122 66.9184 393.353 67.7677 392.732 68.751L392.652 68.877C390.619 72.154 390.477 76.566 391.33 80.229C392.008 83.007 393.623 85.389 396.05 86.926C398.104 88.165 400.58 88.779 402.966 88.787H403.612L404.263 88.792C407.095 88.805 410.238 88.264 412.437 86.349L412.603 86.21C414.853 84.26 415.741 81.391 415.995 78.5C416.013 78.2033 416.022 77.9047 416.022 77.604V77.406L416.024 76.776V76.559C416.024 75.537 416.005 74.54 415.818 73.531L415.786 73.352C415.422 71.338 414.689 69.356 413.332 67.793L413.193 67.632L412.753 67.158L412.625 67.019C411.917 66.271 411.048 65.713 410.139 65.246L410.024 65.185C408.874 64.6184 407.644 64.2306 406.377 64.035L406.195 64.003C404.247 63.6859 402.26 63.6967 400.316 64.035M408.345 120.803L406.999 120.835L404.596 120.891L402.279 120.944L399.326 121.013L398.393 121.034L397.135 121.063L396.677 121.073C395.968 121.087 395.257 121.108 394.545 121.137L394.387 121.142C392.389 121.233 390.523 122.225 389.155 123.66C387.514 125.502 386.792 127.782 386.924 130.228C387.04 131.601 387.599 132.899 388.517 133.926L388.627 134.063C390.896 136.82 395.358 137.514 398.684 137.86C404.235 138.391 410.144 138.23 420.635 133.955C422.139 132.684 423.199 130.93 423.4 128.953C423.512 127.036 423.272 125.233 421.998 123.723L421.872 123.568C420.268 121.686 417.568 121.01 415.197 120.801C414.495 120.745 413.791 120.716 413.087 120.715H412.94C411.409 120.717 409.877 120.76 408.346 120.795M345.918 39.288H362.371C362.371 46.395 362.371 46.395 362.009 47.647L361.961 47.821C361.44 49.6036 360.487 51.2296 359.185 52.554L359.038 52.715C358.252 53.538 357.295 54.155 356.313 54.721L356.198 54.788C353.382 56.442 349.51 57.322 346.238 57.271C346.302 57.488 346.383 57.536 346.578 57.657L346.857 57.802C348.946 58.915 351.054 60.588 352.534 62.45C352.681 62.6307 352.831 62.8093 352.984 62.986C353.582 63.7105 354.116 64.4858 354.579 65.303L354.734 65.571C356.088 67.888 356.887 70.5 357.268 73.15L357.297 73.348C357.61 75.6103 357.6 77.9055 357.268 80.165L357.236 80.39C356.689 83.981 355.292 87.465 352.951 90.27L352.702 90.575C352.305 91.06 351.871 91.508 351.428 91.953L351.262 92.122C350.883 92.4968 350.482 92.8487 350.061 93.176L349.825 93.369C348.393 94.543 346.803 95.469 345.151 96.3L345.001 96.378C340.52 98.649 335.25 99.55 319.188 99.105C318.059 98.909 316.766 99.649 315.852 100.269C314.943 100.931 314.192 101.741 313.994 102.881C313.882 103.937 314.16 104.954 314.814 105.796C315.881 106.933 317.531 107.391 319.046 107.469L319.791 107.474H320.858L321.703 107.476L323.164 107.478L325.282 107.48L328.725 107.485H329.143L335.692 107.495L337.8 107.497L339.248 107.499H340.079C341.752 107.499 343.426 107.512 345.094 107.654L345.241 107.667C350.653 108.123 356.561 109.689 360.308 113.883L360.52 114.143L360.694 114.352C363.974 118.34 364.845 123.623 364.368 128.654C363.848 133.688 361.592 138.445 357.712 141.755L357.538 141.908C356.614 142.701 355.628 143.418 354.588 144.051L354.46 144.131C353.674 144.613 352.859 145.037 352.038 145.453L351.877 145.536C349.34 146.82 346.572 147.676 343.813 148.322L343.671 148.354C340.704 149.026 337.692 149.488 334.66 149.735L334.491 149.751C332.206 149.952 329.921 150 327.631 149.995H326.545C324.306 150.012 322.066 149.925 319.835 149.735L319.656 149.719C314.357 149.245 308.797 148.295 300.513 143.602L300.328 143.457C297.461 141.172 295.608 138.018 295.174 134.368C294.847 131.402 295.512 128.567 296.879 125.936L296.948 125.802C297.487 124.764 298.206 123.81 298.983 122.941L299.117 122.786C299.771 122.028 300.494 121.333 301.278 120.71L301.533 120.504C302.199 119.971 302.903 119.486 303.638 119.053L303.766 118.975C304.295 118.668 304.834 118.379 305.383 118.109L305.557 118.021C305.886 117.855 306.225 117.712 306.576 117.592C306.71 117.533 306.71 117.533 306.747 117.388L306.76 117.268L306.522 117.223C306.136 117.137 305.785 116.987 305.423 116.834L305.206 116.74C304.08 116.249 302.972 115.702 301.98 114.973L301.87 114.893C301.393 114.546 300.94 114.168 300.513 113.761L300.331 113.592C298.626 111.958 297.632 109.718 297.566 107.357C297.529 104.592 298.558 102.353 300.449 100.371L300.588 100.221C300.999 99.8115 301.443 99.4359 301.915 99.098L302.019 99.018C304.304 97.275 307.919 95.583 310.842 95.655C310.818 95.497 310.802 95.419 310.676 95.317L310.542 95.242L310.389 95.154L310.223 95.06C309.215 94.475 308.249 93.8207 307.332 93.102L307.11 92.931C306.712 92.6291 306.328 92.3088 305.96 91.971L305.697 91.735C305.339 91.4228 304.993 91.0972 304.659 90.759L304.372 90.475C303.972 90.0778 303.598 89.656 303.251 89.212L303.058 88.979C302.299 88.0422 301.637 87.0303 301.084 85.959L301.02 85.836C298.432 80.912 298.156 74.899 299.746 69.616C300.38 67.5433 301.349 65.5884 302.615 63.829L302.693 63.725C303.204 63.0277 303.752 62.3617 304.337 61.727L304.492 61.55C305.182 60.7802 305.94 60.0731 306.755 59.437L306.867 59.346C307.9 58.5318 308.992 57.7941 310.133 57.139L310.294 57.048C314.958 54.407 320.372 53.157 325.696 52.867L325.83 52.859C326.937 52.798 328.045 52.792 329.155 52.79L330.144 52.785L332.952 52.775L334.51 52.767L335.33 52.765C337.339 52.765 337.339 52.765 339.326 52.502L339.492 52.47C341.262 52.103 342.911 51.266 343.949 49.737C345.899 46.736 345.799 42.716 345.909 39.286M325.119 64.032L324.934 64.064C322.837 64.45 320.828 65.244 319.251 66.708L319.141 66.81C316.781 69.014 315.818 72.214 315.69 75.37L315.682 75.638L315.677 75.775C315.583 79.272 316.449 82.718 318.868 85.32C320.555 87.098 322.864 88.077 325.237 88.541L325.382 88.57C326.481 88.768 327.581 88.8 328.697 88.795H328.914C329.957 88.793 330.979 88.771 332.009 88.583L332.194 88.551C333.964 88.235 335.793 87.605 337.174 86.414L337.343 86.269L337.809 85.843L337.937 85.728C340.2 83.604 340.755 80.214 340.855 77.264C340.943 74.228 340.445 70.956 338.64 68.433L338.562 68.326C337.618 67.0256 336.377 65.9694 334.942 65.245L334.827 65.184C333.682 64.597 332.443 64.259 331.18 64.034L331.006 64.002C329.057 63.6736 327.067 63.6845 325.122 64.034M333.149 120.802L331.803 120.834L329.4 120.89L327.08 120.943L324.535 121.002L324.398 121.004L324.127 121.009L323.194 121.03L321.936 121.059L321.478 121.069C320.775 121.083 320.073 121.106 319.37 121.138L319.215 121.146C318.86 121.162 318.507 121.205 318.159 121.277L318.001 121.312C316.741 121.596 315.657 122.199 314.668 123.02L314.51 123.148C314.129 123.47 313.824 123.837 313.521 124.231L313.395 124.389C312.073 126.102 311.542 128.328 311.765 130.466C311.958 131.943 312.615 133.193 313.65 134.242L313.787 134.392C316.528 137.339 321.664 137.776 325.448 138.004L325.625 138.014C331.219 138.354 337.551 138.075 344.581 134.624L344.685 134.549C346.549 133.195 347.742 131.503 348.187 129.215C348.235 128.867 348.23 128.515 348.23 128.164L348.235 127.762C348.249 126.178 347.674 124.646 346.621 123.463L346.509 123.329C344.656 121.326 341.483 120.846 338.906 120.72C338.572 120.712 338.237 120.709 337.903 120.712H337.756C336.225 120.714 334.691 120.757 333.159 120.792M747.638 22.572H764.346V120.467H747.764V111.603C747.576 111.784 747.411 111.988 747.273 112.209C746.377 113.571 745.299 114.77 744.157 115.923L743.991 116.092C743.612 116.468 743.211 116.822 742.79 117.151L742.554 117.344C739.02 120.216 734.7 121.949 730.161 122.316L729.96 122.332C729.298 122.376 728.634 122.396 727.97 122.391H727.801C721.593 122.348 715.586 120.184 710.776 116.258L710.672 116.172C710.227 115.804 709.792 115.422 709.369 115.027L708.811 114.526C708.574 114.308 708.35 114.077 708.141 113.832C708.029 113.705 707.911 113.584 707.787 113.468C707.542 113.223 707.314 112.963 707.103 112.688L706.706 112.216C705.175 110.443 703.987 108.397 702.933 106.313L702.85 106.15C700.442 101.352 699.315 95.83 701.177 72.409C701.971 70.017 703.017 67.711 704.336 65.562L704.435 65.399C704.917 64.6193 705.438 63.8647 705.996 63.138L706.095 63.01C706.424 62.576 706.773 62.156 707.143 61.75L707.475 61.375C708.128 60.6243 708.826 59.915 709.567 59.251L709.674 59.155C711.135 57.8668 712.738 56.7502 714.453 55.827L714.866 55.597C717.805 53.961 721.168 53.082 724.488 52.685L724.675 52.661C730.881 51.9461 737.119 53.7068 742.035 57.561L742.534 57.974L742.756 58.161C743.126 58.472 743.485 58.788 743.823 59.137C743.936 59.2477 744.053 59.353 744.174 59.453C744.517 59.748 744.812 60.086 745.115 60.421L745.375 60.702C746.053 61.434 746.643 62.236 747.236 63.038L747.429 63.29C747.507 63.392 747.507 63.392 747.507 63.52H747.635L747.638 22.572ZM721.763 69.889L721.361 70.24C717.513 73.622 716.424 79.559 716.102 84.406C716.073 84.9247 716.059 85.4423 716.059 85.959V86.098L716.057 86.835L716.055 87.427C716.042 89.202 716.13 90.962 716.411 92.718L716.43 92.846C716.803 95.214 717.441 97.577 718.495 99.738L718.586 99.925C719.361 101.542 720.384 103.028 721.619 104.328L721.729 104.443C722.273 105.009 722.831 105.526 723.469 105.985L723.595 106.076C725.89 107.714 728.564 108.57 731.375 108.664L731.571 108.672C733.867 108.717 736.14 108.211 738.2 107.197L738.345 107.128C739.583 106.529 740.71 105.723 741.676 104.744C741.772 104.648 741.772 104.648 741.931 104.524C742.113 104.374 742.261 104.205 742.413 104.025C742.493 103.932 742.575 103.841 742.659 103.752C746.092 100.102 747.497 94.647 747.827 89.79L747.843 89.544C747.891 88.775 747.902 88.008 747.902 87.235V87.042C747.894 81.351 746.835 75.381 742.981 70.978L742.828 70.801C742.543 70.4743 742.232 70.1713 741.898 69.895L741.716 69.734C737.165 65.744 729.68 65.357 721.763 69.889ZM628.333 52.269H628.783C630.242 52.271 631.695 52.296 633.146 52.465L633.586 52.513C635.051 52.6775 636.506 52.9219 637.944 53.245L638.07 53.274C640.028 53.719 641.959 54.355 643.777 55.21L644.225 55.414C646.341 56.363 648.315 57.72 650.023 59.281L650.43 59.637C650.698 59.8743 650.959 60.122 651.213 60.38L651.341 60.508C651.627 60.7961 651.901 61.095 652.164 61.404L652.268 61.527C653.537 63.0401 654.635 64.6887 655.542 66.443L655.633 66.612C656.137 67.572 656.553 68.556 656.947 69.567L657.016 69.744C658.426 73.338 659.062 77.261 659.354 81.094L659.364 81.241C659.629 84.776 659.495 88.361 659.495 91.885H612.94C613.077 93.202 613.077 93.202 613.275 94.508L613.315 94.728C613.868 97.6987 615.141 100.489 617.021 102.854L617.179 103.05C617.865 103.892 618.64 104.686 619.509 105.34L619.611 105.418C623.1 108.121 627.539 109.108 631.881 108.59C635.78 108.089 639.452 106.236 641.892 103.106L642.077 102.878C643.316 101.336 644.217 99.539 644.887 97.686C645.217 97.785 645.514 97.927 645.823 98.083L645.984 98.163L646.322 98.332L646.826 98.584L647.158 98.75L647.305 98.822C647.618 98.9807 647.93 99.1423 648.241 99.307C648.839 99.6229 649.44 99.9313 650.046 100.232L650.518 100.468L651.521 100.967L652.685 101.549L653.143 101.777C653.696 102.054 654.246 102.337 654.792 102.627C655.182 102.833 655.577 103.033 655.974 103.225L656.363 103.415L656.958 103.704L657.545 103.991L657.727 104.079L657.893 104.162L658.04 104.234C658.15 104.317 658.15 104.317 658.203 104.44C658.222 104.644 658.139 104.78 658.053 104.963L658 105.078L657.821 105.453L657.698 105.713C656.699 107.806 655.461 109.776 654.008 111.583L653.861 111.768C653.558 112.143 653.24 112.506 652.909 112.857L652.52 113.294C652.272 113.574 652.015 113.844 651.748 114.106L651.611 114.245C651.316 114.538 651.01 114.821 650.691 115.092L650.474 115.279C649.988 115.704 649.485 116.109 648.967 116.494L648.839 116.59C644.087 120.125 638.372 121.97 630.093 122.629H629.828L628.989 122.631H628.844C627.426 122.631 626.018 122.618 624.607 122.441L624.197 122.393C620.616 121.977 617.12 121.021 613.826 119.556L613.647 119.476C611.885 118.686 610.214 117.707 608.662 116.558L608.552 116.478C607.279 115.534 606.077 114.496 604.956 113.375L604.648 113.07C604.283 112.709 603.939 112.328 603.618 111.928C603.515 111.8 603.41 111.674 603.302 111.55C600.926 108.866 599.21 105.497 598.011 102.145L597.936 101.936C596.22 97.133 595.611 91.919 595.716 86.84L595.718 86.626C595.82 81.278 596.799 75.882 604.311 62.569L604.539 62.314C604.874 61.92 605.236 61.555 605.601 61.191L605.925 60.864C606.295 60.4857 606.688 60.1304 607.102 59.8C607.257 59.6734 607.407 59.5409 607.552 59.403C607.978 59.014 608.445 58.679 608.911 58.339L609.042 58.243C613.572 54.961 618.976 52.984 624.669 52.41L624.83 52.394C625.994 52.276 627.155 52.26 628.324 52.263M625.243 64.975L625.061 65.007C621.701 65.616 618.772 67.394 616.796 70.191C615.195 72.519 614.302 75.219 613.776 77.974L613.741 78.156C613.604 78.923 613.535 79.695 613.446 80.47H642.145C642.145 80.049 642.145 79.671 642.1 79.261L642.087 79.124L642.039 78.69L642.023 78.537C641.669 75.442 640.921 72.267 639.087 69.692L639.007 69.58C637.138 66.99 634.373 65.488 631.248 64.978C630.949 64.9297 630.65 64.8861 630.35 64.847L630.187 64.826C629.562 64.757 628.929 64.77 628.302 64.767H628.112C627.144 64.767 626.203 64.802 625.248 64.973M470.08 52.264H470.562C472.042 52.266 473.517 52.277 474.987 52.46L475.408 52.508C481.096 53.168 486.583 54.972 492.953 59.862L493.261 60.138C493.841 60.649 494.386 61.1989 494.891 61.784L495.057 61.971C495.593 62.58 496.079 63.226 496.548 63.888L496.634 64.011C499.353 67.878 499.353 67.878 499.353 69.31L499.155 69.379C497.74 69.8687 496.329 70.3667 494.92 70.873C493.847 71.2599 492.772 71.6405 491.694 72.015C490.799 72.3257 489.906 72.642 489.015 72.964C486.779 73.768 486.779 73.768 485.719 74.141L485.36 74.269L484.867 74.443L484.72 74.496C484.388 74.611 484.388 74.611 484.176 74.539C484.112 74.429 484.112 74.429 484.056 74.287L483.992 74.126L483.923 73.949C483.16 72.1061 482.057 70.4236 480.67 68.99L480.52 68.832C479.372 67.652 477.948 66.748 476.462 66.056L476.323 65.992C475.277 65.5215 474.18 65.1725 473.054 64.952L472.915 64.923C471.979 64.7573 471.029 64.6809 470.078 64.695L469.504 64.693C468.364 64.6772 467.227 64.8069 466.12 65.079L465.93 65.127C464.686 65.462 463.541 65.977 462.562 66.819L462.431 66.921C461.487 67.685 460.908 68.838 460.648 70.008L460.605 70.204C460.31 71.797 460.568 73.441 461.476 74.793C461.852 75.3038 462.303 75.7549 462.814 76.131L462.993 76.268C466.747 78.995 472.047 79.875 476.486 80.824C478.827 81.323 481.136 81.897 483.413 82.637L483.539 82.677C487.251 83.886 490.944 85.554 493.872 88.185L493.974 88.276C494.631 88.863 495.237 89.469 495.784 90.161L495.953 90.367C496.357 90.8675 496.724 91.3973 497.05 91.952L497.254 92.284C498.828 94.907 499.372 98.066 499.367 101.089V101.242C499.359 104.296 498.793 107.367 497.442 110.122L497.356 110.299C496.752 111.531 496.01 112.692 495.146 113.758L495.066 113.857C494.643 114.38 494.181 114.862 493.707 115.34L493.541 115.509C493.162 115.884 492.761 116.236 492.34 116.563L492.123 116.74C491.158 117.518 490.106 118.193 489.023 118.794L488.865 118.882C484.617 121.234 479.731 122.215 474.927 122.556L474.686 122.575C473.664 122.647 472.64 122.636 471.615 122.636H471.462C469.805 122.636 468.158 122.604 466.509 122.43L466.351 122.414C460.762 121.824 455.058 120.215 450.501 116.817L450.389 116.734C449.03 115.726 447.664 114.557 446.616 113.224C446.473 113.045 446.327 112.869 446.176 112.696C444.087 110.183 442.711 107.104 441.912 103.956L441.864 103.763C441.757 103.323 441.757 103.323 441.829 103.109C441.974 103.054 442.122 103.005 442.271 102.962L442.413 102.922L442.887 102.788L443.225 102.692L443.957 102.483L445.123 102.151L446.544 101.746C447.759 101.399 448.974 101.05 450.188 100.698L451.266 100.387L454.825 99.355L455.101 99.275L455.235 99.235L456.007 99.01L456.575 98.844L456.779 98.785L456.964 98.732L457.122 98.687C457.269 98.647 457.269 98.647 457.46 98.647L457.5 98.786C458.16 101.076 458.98 103.294 460.522 105.153L460.616 105.268C461.589 106.434 462.708 107.389 464.027 108.151L464.145 108.22C465.569 109.043 467.17 109.537 468.782 109.826L468.943 109.855C470.019 110.026 471.107 110.103 472.196 110.085H472.375C475.317 110.075 478.618 109.576 480.815 107.436C482.199 106.02 482.681 104.323 482.668 102.384C482.636 100.823 482.153 99.456 481.115 98.267L481.005 98.141C480.286 97.374 479.364 96.827 478.436 96.355L478.283 96.275C477.342 95.8105 476.371 95.4109 475.376 95.079L475.151 95.001C472.206 93.99 469.144 93.355 466.1 92.711C464.064 92.2893 462.051 91.7602 460.071 91.126L459.937 91.083C458.663 90.6691 457.41 90.1921 456.183 89.654L455.977 89.566C453.175 88.338 450.12 86.579 448.133 84.181L447.852 83.857C445.168 80.848 443.953 76.86 443.977 72.877V72.239C443.981 69.585 444.533 66.9603 445.597 64.529L445.664 64.371C446.457 62.6074 447.557 60.9985 448.912 59.619L449.049 59.477C449.639 58.868 450.229 58.286 450.913 57.782C451.015 57.7054 451.114 57.6277 451.21 57.549C452.146 56.8291 453.148 56.1989 454.203 55.667L454.356 55.584C459.122 53.034 464.74 52.253 470.08 52.267M553.635 23.077C553.541 23.694 553.413 24.305 553.284 24.914L553.217 25.233L553.032 26.091L552.839 26.997L552.512 28.52L552.139 30.266L551.624 32.674C551.345 33.9827 551.06 35.2903 550.769 36.597L550.619 36.549L550.421 36.488L550.225 36.427C546.865 35.36 542.391 34.418 539.082 36.092C538.794 36.2568 538.522 36.4479 538.27 36.663L538.08 36.816C536.712 38.007 536.302 39.964 536.176 41.691C536.117 42.651 536.136 43.616 536.136 44.577L536.134 45.532L536.126 48.308L536.099 54.581H551.978V68.039H536.353V120.457H519.452V68.048H506.314V54.59H519.452L519.442 46.276V44.297C519.44 42.986 519.44 41.68 519.511 40.371L519.519 40.234C519.814 35.16 521.351 30 524.939 26.275L525.051 26.157C525.56 25.626 526.083 25.138 526.676 24.701L527.014 24.444C527.937 23.7607 528.93 23.178 529.977 22.706L530.1 22.647C531.234 22.1407 532.409 21.7335 533.613 21.43L533.771 21.387C538.882 20.06 544.689 20.424 553.636 23.087M671.683 22.578H688.52V120.474H671.683V22.578ZM565.369 52.744H582.206C582.31 52.848 582.278 52.974 582.278 53.114V74.644L582.276 84.178V94.916L582.274 110.154V110.406L582.272 120.471H565.371L565.369 52.744ZM267.729 52.808H284.63V120.473H267.729V52.808ZM580.636 25.182C582.651 26.9696 583.876 29.4825 584.044 32.171C584.176 34.4752 583.53 36.7568 582.21 38.65L582.132 38.76C581.425 39.7456 580.543 40.5935 579.531 41.262L579.416 41.34C578.386 42.013 577.281 42.439 576.088 42.729L575.951 42.764C573.468 43.367 570.73 42.762 568.563 41.488C566.291 40.0968 564.649 37.8772 563.983 35.298C563.343 32.6663 563.755 29.8887 565.131 27.556C565.933 26.269 566.971 25.134 568.244 24.303L568.37 24.22C572.202 21.748 577.223 22.241 580.637 25.185M280.744 23.598L280.864 23.654C281.797 24.104 282.612 24.732 283.358 25.445L283.511 25.587C284.278 26.316 284.852 27.188 285.334 28.124L285.395 28.242C286.594 30.548 286.73 33.364 285.958 35.826C285.366 37.609 284.325 39.304 282.847 40.495L282.665 40.642C281.26 41.7683 279.586 42.5086 277.808 42.79L277.588 42.825C276.448 42.962 275.158 42.943 274.045 42.662L273.887 42.625C271.339 41.995 269.049 40.45 267.654 38.2C267.479 37.9067 267.314 37.6079 267.158 37.304L267.097 37.186C266.473 35.9544 266.124 34.6018 266.075 33.222L266.065 33.002C266.006 30.6642 266.753 28.3772 268.181 26.525L268.312 26.354C269.221 25.206 270.323 24.321 271.624 23.656L271.742 23.595C274.515 22.155 277.966 22.233 280.745 23.593" fill="white"/>
</g>
<defs>
<clipPath id="clip0_2_55">
<rect width="764.348" height="150" fill="white"/>
</clipPath>
</defs>
</svg>
