<svg width="639" height="228" viewBox="0 0 639 228" fill="none" xmlns="http://www.w3.org/2000/svg">
<path fill-rule="evenodd" clip-rule="evenodd" d="M288.144 27.93V0C266.109 13.11 238.989 13.11 216.955 0V27.93C238.989 40.47 266.109 40.47 288.144 27.93ZM31.6391 170.43V114C31.6391 94.05 42.3739 82.65 55.3689 82.65C68.3629 82.65 77.4028 92.91 77.4028 114V170.43H108.478V114C108.478 94.05 118.647 82.65 132.207 82.65C145.201 82.65 154.241 92.91 154.241 114V170.43H186.446V111.15C186.446 74.1 166.671 55.29 139.551 55.29C122.037 55.29 109.607 62.13 100.003 73.53C90.9631 60.99 79.0977 55.29 64.4088 55.29C50.8485 55.29 38.984 61.56 31.0738 71.25V57.57H0V171H31.6391V170.43ZM251.984 139.08L226.559 57H193.225L236.73 178.41L218.085 228H250.854L312.438 57.57H278.538L251.984 139.08ZM372.326 173.28C393.796 173.28 411.31 163.59 420.915 148.2L397.751 130.53C392.101 139.08 383.061 144.21 372.891 144.21C357.072 144.21 344.642 131.1 344.642 114C344.642 96.9 357.637 83.79 373.457 83.79C383.626 83.79 392.666 88.92 398.316 97.47L421.481 79.8C411.31 64.41 393.796 54.72 372.891 54.72C337.862 54.72 313.003 80.94 313.003 114.57C312.438 147.06 337.297 173.28 372.326 173.28ZM477.979 173.28C494.363 173.28 506.228 166.44 514.138 157.89V171H545.778V57.57H514.138V70.68C506.228 61.56 494.363 55.29 477.979 55.29C446.904 55.29 424.87 80.94 424.87 114C424.87 147.06 447.47 173.28 477.979 173.28ZM485.324 144.78C468.939 144.78 456.51 131.67 456.51 114C456.51 96.33 468.939 83.22 485.324 83.22C501.708 83.22 514.138 96.33 514.138 114C514.138 131.67 501.708 144.78 485.324 144.78ZM599.451 123.69V170.43H567.812V57.57H599.451V72.96C607.926 60.99 619.225 55.29 634.481 55.29C636.175 55.29 637.305 55.29 639 55.29V87.21C636.175 87.21 633.915 87.21 631.655 87.21C613.011 86.64 599.451 99.75 599.451 123.69Z" fill="white"/>
</svg>
