<svg width="455" height="150" viewBox="0 0 455 150" fill="none" xmlns="http://www.w3.org/2000/svg">
<g clip-path="url(#clip0_2_16)">
<path fill-rule="evenodd" clip-rule="evenodd" d="M205.173 19.878V0C189.483 9.33 170.172 9.33 154.483 0V19.878C162.209 24.2649 170.943 26.5713 179.828 26.5713C188.714 26.5713 197.447 24.2649 205.173 19.878ZM22.5285 121.297V81.136C22.5285 66.937 30.1721 58.824 39.4255 58.824C48.6788 58.824 55.1138 66.126 55.1138 81.136V121.298H77.2412V81.136C77.2412 66.937 84.4816 58.824 94.1371 58.824C103.388 58.824 109.825 66.126 109.825 81.136V121.298H132.757V79.107C132.757 52.737 118.677 39.351 99.3645 39.351C86.8947 39.351 78.0435 44.22 71.2043 52.332C64.7673 43.407 56.3184 39.351 45.8605 39.351C36.205 39.351 27.756 43.813 22.1234 50.71V40.974H0V121.704H22.5295L22.5285 121.297ZM179.425 98.985L161.321 40.568H137.585L168.564 126.978L155.288 162.271H178.621L222.471 40.974H198.332L179.425 98.985ZM265.115 123.326C280.403 123.326 292.873 116.429 299.712 105.476L283.219 92.9C279.196 98.985 272.759 102.636 265.516 102.636C254.253 102.636 245.402 93.306 245.402 81.135C245.402 68.964 254.655 59.634 265.92 59.634C273.161 59.634 279.598 63.285 283.621 69.37L300.116 56.794C292.874 45.841 280.402 38.944 265.516 38.944C240.575 38.944 222.872 57.605 222.872 81.541C222.47 104.665 240.17 123.326 265.114 123.326M340.344 123.326C352.01 123.326 360.459 118.457 366.091 112.373V121.705H388.621V40.974H366.091V50.304C360.459 43.813 352.011 39.351 340.344 39.351C318.217 39.351 302.529 57.606 302.529 81.136C302.529 104.666 318.621 123.326 340.344 123.326ZM345.575 103.042C333.907 103.042 325.058 93.712 325.058 81.136C325.058 68.56 333.907 59.23 345.575 59.23C357.242 59.23 366.091 68.56 366.091 81.136C366.091 93.712 357.24 103.042 345.575 103.042ZM426.84 88.032V121.297H404.311V40.974H426.84V51.927C432.875 43.407 440.919 39.351 451.783 39.351H455V62.07H449.77C436.494 61.665 426.839 70.995 426.839 88.033" fill="white"/>
</g>
<defs>
<clipPath id="clip0_2_16">
<rect width="455" height="150" fill="white"/>
</clipPath>
</defs>
</svg>
