<svg width="2439" height="791" viewBox="0 0 2439 791" fill="none" xmlns="http://www.w3.org/2000/svg">
<path d="M342.478 0H324.393C145.264 0 0 145.223 0 324.393V342.478C0 521.607 145.264 666.871 324.393 666.871H342.478C521.648 666.871 666.871 521.607 666.871 342.478V324.393C666.871 145.223 521.648 0 342.478 0ZM527.581 384.376C527.581 386.766 527.416 389.115 527.128 391.463C520.33 492.398 436.287 572.157 333.621 572.157C230.956 572.157 139.702 485.353 139.702 378.238V184.278C139.702 169.035 145.923 155.193 155.975 145.14C166.028 135.088 179.871 128.867 195.073 128.867C225.559 128.867 250.484 153.833 250.484 184.278L250.566 379.762C252.214 424.215 288.757 459.769 333.621 459.769C378.486 459.769 414.987 424.215 416.635 379.762L416.758 184.278C416.758 169.035 422.979 155.193 433.031 145.14C443.084 135.088 456.926 128.867 472.17 128.867C502.656 128.867 527.581 153.833 527.581 184.278V384.376Z" fill="#2DBE61"/>
<path d="M930.825 126.025C985.495 126.025 1034.89 148.642 1070.16 185.061C1105.42 148.642 1154.82 126.025 1209.49 126.025C1316.6 126.025 1403.45 212.87 1403.45 319.985V514.727C1403.45 544.761 1378.85 569.356 1348.82 569.356C1318.79 569.356 1294.19 544.761 1294.19 514.727V319.985C1294.19 273.225 1256.29 235.282 1209.49 235.282C1162.69 235.282 1124.78 273.184 1124.78 319.985V514.727C1124.78 544.761 1100.19 569.356 1070.16 569.356C1040.12 569.356 1015.53 544.761 1015.53 514.727V319.985C1015.53 273.225 977.626 235.282 930.825 235.282C884.024 235.282 846.122 273.184 846.122 319.985V514.727C846.122 544.761 821.527 569.356 791.493 569.356C761.46 569.356 736.865 544.761 736.865 514.727V180.695C736.865 150.661 761.46 126.066 791.493 126.066C810.321 126.066 827.006 135.707 836.852 150.332C864.702 134.883 896.713 126.066 930.825 126.066V126.025Z" fill="#2DBE61"/>
<path d="M1857.37 126.024C1834.92 126.024 1815.51 139.784 1807.15 159.271C1773.24 138.219 1733.24 126.024 1690.35 126.024C1567.95 126.024 1468.71 225.27 1468.71 347.669C1468.71 470.068 1567.95 569.314 1690.35 569.314C1733.2 569.314 1773.24 557.119 1807.15 536.067C1815.51 555.554 1834.92 569.314 1857.37 569.314C1887.4 569.314 1912 544.718 1912 514.685V180.652C1912 150.619 1887.4 126.024 1857.37 126.024ZM1690.35 460.057C1628.23 460.057 1577.96 409.754 1577.96 347.669C1577.96 285.584 1628.27 235.281 1690.35 235.281C1752.44 235.281 1802.74 285.584 1802.74 347.669C1802.74 409.754 1752.44 460.057 1690.35 460.057Z" fill="#2DBE61"/>
<path d="M2383.06 126.024C2360.69 126.024 2341.32 139.496 2332.63 158.694C2247.23 106.29 2134.06 117.002 2060.11 190.952C1973.55 277.509 1973.55 417.87 2060.11 504.427C2132.61 576.935 2242.78 588.677 2327.56 539.775V569.231C2327.56 630.039 2277.51 680.095 2216.7 680.095C2184.85 680.095 2154.49 666.376 2133.48 642.481H2133.52C2132.82 641.657 2132.12 640.916 2131.38 640.174C2109.75 618.545 2074.65 618.545 2053.02 640.174C2032.38 660.815 2031.43 693.691 2050.14 715.443C2092.2 763.439 2153.01 791 2216.82 791C2338.4 791 2438.47 690.93 2438.47 569.355V347.71V181.476C2438.47 150.99 2413.54 126.065 2383.06 126.065V126.024ZM2295.22 425.986C2251.92 469.285 2181.72 469.285 2138.42 425.986C2095.12 382.687 2095.12 312.486 2138.42 269.187C2181.72 225.888 2251.92 225.888 2295.22 269.187C2316.73 290.692 2327.52 318.83 2327.69 347.01V348.163C2327.52 376.343 2316.73 404.481 2295.22 425.986Z" fill="#2DBE61"/>
</svg>
