<svg width="455" height="150" viewBox="0 0 455 150" fill="none" xmlns="http://www.w3.org/2000/svg">
<path d="M63.8899 1.2533H60.5161C27.0993 1.2533 0 28.3323 0 61.7411V65.1133C0 98.5145 27.0993 125.601 60.5161 125.601H63.8899C97.3143 125.601 124.406 98.5145 124.406 65.1133V61.7411C124.406 28.3323 97.3145 1.2533 63.8899 1.2533ZM98.4212 72.9258C98.4212 73.3715 98.3905 73.8095 98.3367 74.2473C97.0685 93.0681 81.3901 107.94 62.2375 107.94C43.0852 107.94 26.0616 91.7544 26.0616 71.7813V35.6147C26.0616 32.7724 27.2221 30.1914 29.0974 28.3168C30.9728 26.4426 33.5553 25.2825 36.3912 25.2825C42.0784 25.2825 46.7282 29.9377 46.7282 35.6147L46.7435 72.0655C47.051 80.3544 53.8681 86.984 62.2377 86.984C70.6072 86.984 77.4166 80.3544 77.7241 72.0655L77.747 35.6147C77.747 32.7724 78.9075 30.1914 80.7828 28.3168C82.6582 26.4426 85.2404 25.2825 88.0843 25.2825C93.7715 25.2825 98.4213 29.9377 98.4213 35.6147L98.4212 72.9258Z" fill="white"/>
<path d="M173.647 24.7525C183.846 24.7525 193.061 28.9698 199.64 35.7606C206.218 28.9698 215.434 24.7525 225.633 24.7525C245.614 24.7525 261.816 40.946 261.816 60.9191V97.2316C261.816 102.832 257.227 107.418 251.625 107.418C246.023 107.418 241.434 102.832 241.434 97.2316V60.9191C241.434 52.2001 234.363 45.1251 225.633 45.1251C216.902 45.1251 209.83 52.1925 209.83 60.9191V97.2316C209.83 102.832 205.243 107.418 199.64 107.418C194.036 107.418 189.449 102.832 189.449 97.2316V60.9191C189.449 52.2001 182.378 45.1251 173.647 45.1251C164.916 45.1251 157.846 52.1925 157.846 60.9191V97.2316C157.846 102.832 153.258 107.418 147.655 107.418C142.052 107.418 137.464 102.832 137.464 97.2316V34.9465C137.464 29.3462 142.052 24.7601 147.655 24.7601C151.167 24.7601 154.28 26.5579 156.116 29.2848C161.312 26.4041 167.284 24.7601 173.647 24.7601L173.647 24.7525Z" fill="white"/>
<path d="M346.496 24.7523C342.308 24.7523 338.687 27.318 337.127 30.9517C330.801 27.0262 323.339 24.7523 315.338 24.7523C292.504 24.7523 273.991 43.2581 273.991 66.0813C273.991 88.9044 292.504 107.41 315.338 107.41C323.332 107.41 330.801 105.136 337.127 101.211C338.687 104.844 342.308 107.41 346.496 107.41C352.098 107.41 356.687 102.824 356.687 97.2239V34.9384C356.687 29.3383 352.098 24.7523 346.496 24.7523ZM315.338 87.0376C303.749 87.0376 294.371 77.6578 294.371 66.0813C294.371 54.5047 303.757 45.1249 315.338 45.1249C326.921 45.1249 336.305 54.5047 336.305 66.0813C336.305 77.6578 326.921 87.0376 315.338 87.0376Z" fill="white"/>
<path d="M444.564 24.7523C440.391 24.7523 436.778 27.2644 435.157 30.8441C419.225 21.0726 398.113 23.07 384.317 36.8591C368.169 52.999 368.169 79.1713 384.317 95.3111C397.842 108.831 418.395 111.021 434.211 101.902V107.395C434.211 118.733 424.874 128.067 413.53 128.067C407.588 128.067 401.924 125.509 398.005 121.053H398.012C397.882 120.9 397.751 120.762 397.613 120.623C393.578 116.59 387.03 116.59 382.995 120.623C379.144 124.472 378.967 130.602 382.458 134.658C390.304 143.608 401.648 148.747 413.552 148.747C436.233 148.747 454.901 130.087 454.901 107.418V35.0921C454.901 29.4075 450.25 24.7599 444.564 24.7599L444.564 24.7523ZM428.178 80.6846C420.1 88.7583 407.004 88.7583 398.926 80.6846C390.848 72.6109 390.848 59.5209 398.926 51.4472C407.004 43.3735 420.1 43.3735 428.178 51.4472C432.19 55.457 434.203 60.7039 434.235 65.9585V66.1735C434.203 71.428 432.19 76.6746 428.178 80.6846Z" fill="white"/>
</svg>
