<svg xmlns="http://www.w3.org/2000/svg" width="410.417" height="150" viewBox="0 0 410.417 150">
  <path d="M75.695 0c.473.211.473.211.937.51l.529.336.56.369.587.379c16.33 10.641 16.33 10.641 18.81 18.48.141.703.134 1.371.133 2.089l.001.475q0 .788-.002 1.575v1.129q0 1.533-.003 3.066l-.002 3.204q-.001 3.034-.005 6.067-.004 3.454-.005 6.907-.004 7.105-.012 14.209-2.971.11-5.944.162c-.921.016-1.841.038-2.762.074-7.237.274-7.237.274-9.98-2.104-1.325-1.283-2.4-2.78-3.305-4.381a31 31 0 0 0-2.777 2.58l-.623.648q-.48.499-.954 1.004a75 75 0 0 1-.94.981l-.556.587c-.807.576-1.52.649-2.483.682l-.466.017c-.479.01-.957.009-1.436.006l-.521-.001-1.627-.007-1.112-.003q-1.354-.004-2.707-.011l.099.772c.899 7.671.899 7.671-1.087 10.272-1.541 1.788-3.367 3.299-5.262 4.696.785 1.009 1.545 1.759 2.588 2.5 1.848 1.412 3.536 2.757 3.886 5.159.192 2.13.072 4.23-.075 6.358l-.043.638-.106 1.548.778-.094c4.12-.45 8.389-.898 11.805 1.811 1.366 1.169 2.633 2.428 3.874 3.728.757.784 1.538 1.543 2.316 2.307a221 221 0 0 1 3.847 3.905 177 177 0 0 0 4.443 4.436 232 232 0 0 1 4.329 4.321 90 90 0 0 0 1.826 1.807c3.071 2.972 5.311 5.474 5.418 9.913-.025 6.582-2.438 10.968-6.938 15.625-.872.845-1.801 1.612-2.75 2.37a67 67 0 0 0-1.423 1.17c-1.894 1.584-3.9 2.979-5.954 4.345l-.405.27a118 118 0 0 1-1.936 1.261c-.709.45-.709.45-1.327.948-.573.424-1.01.72-1.699.907-.986-.26-1.724-.801-2.546-1.389l-1.366-.873a290 290 0 0 1-1.397-.936l-.74-.496c-1.653-1.115-3.275-2.245-4.833-3.484l-.632-.498c-1.63-1.308-3.17-2.701-4.692-4.131l-.497-.451c-2.605-2.451-4.669-5.552-5.522-9.04a151 151 0 0 0-1.839.745c-1.618.652-3.144 1.119-4.874 1.338l-.569.078c-6.626.754-13.475-.336-19.943-1.76q-.788-.171-1.583-.311l-.753-.148-.666-.119c-.69-.352-.858-.74-1.117-1.456a25 25 0 0 1-.534-2.126l-.1-.475a191 191 0 0 1-.312-1.524l-.108-.532c-.921-4.59-1.454-9.063-1.484-13.747l-.006-.527c-.03-3.696.3-7.756 2.407-10.917l-.51-.146c-2.84-.87-5.121-2.326-7.361-4.253l-.601-.516a31 31 0 0 1-3.334-3.419l-.611-.69c-2.679-3.033-5.035-6.327-7.16-9.769a14 14 0 0 0-1.11-1.557C.342 76.208.093 75.829 0 75c.448-1.463 1.44-2.703 2.315-3.935q.316-.472.628-.946a92 92 0 0 1 1.918-2.758l.334-.466c4.229-5.845 9.19-11.917 16.333-14.117l-.279-.51c-1.805-3.425-2.09-6.759-2.093-10.572v-.563c.007-5.108.715-10.016 1.773-15.01a74 74 0 0 0 .344-1.785q.097-.472.198-.943l.156-.788c.486-.819.91-.917 1.806-1.162l.641-.149.717-.171a120 120 0 0 1 2.451-.524l.893-.183c8.009-1.607 17.32-2.997 24.874.878l.129-.544C54.8 14.564 60.335 9.944 65.278 6.25l.477-.358c2.48-1.85 5.036-3.548 7.671-5.169 1.315-.821 1.315-.821 2.269-.723m-.694 6.944c-10.206 6.491-10.206 6.491-16.249 16.384-.296 1.88-.315 3.674.817 5.285 1.631 2.09 3.634 3.881 5.576 5.675.802.746 1.587 1.51 2.375 2.271 2.1 2.024 4.207 4.046 6.424 5.944.368.325.715.664 1.058 1.015.814-.348 1.338-.818 1.962-1.442l.616-.614.661-.666.685-.685q.718-.719 1.434-1.44.911-.917 1.826-1.83.708-.708 1.415-1.418l.672-.674c1.156-1.158 2.288-2.32 3.338-3.576.377-.412.778-.743 1.222-1.081 1.398-1.104 2.399-2.062 2.631-3.894.132-2.523-.068-4.934-1.647-6.986l-.301-.392a32 32 0 0 0-4.794-4.931l-.375-.313C81.412 11.141 78.333 8.812 75 6.944M27.083 26.851c-1.081 5.03-1.906 9.951-1.939 15.104l-.01.901c.012 2.309.141 4.861 1.717 6.68a53 53 0 0 0 1.705 1.541c.611.543.611.543.896.895.476.567.858.974 1.588 1.164.582.045 1.15.046 1.734.032l.664.001c.722-.001 1.443-.012 2.164-.023l1.504-.006q1.976-.01 3.953-.034 2.018-.02 4.036-.028 3.957-.023 7.914-.068.139-4.38.204-8.76a226 226 0 0 1 .093-4.069 157 157 0 0 0 .076-3.935q.011-.747.043-1.492c.09-2.174.152-4.081-1.261-5.846-2.342-2.54-4.537-3.738-8.012-3.937-5.766-.227-11.436.752-17.069 1.882m31.944 9.491v16.435c6.478.609 6.478.609 8.889-1.013.572-.622.572-.622 1.05-1.302l.571-.669a30 30 0 0 0 1.296-1.647c-1.172-1.415-2.444-2.709-3.744-4.007l-.677-.678-1.411-1.409-1.81-1.811-1.395-1.395-.668-.669-.929-.928-.534-.534c-.341-.402-.341-.402-.637-.376m31.486.431-.609.611-.335.335-1.101 1.105-.762.763-2.008 2.014-2.048 2.053q-2.012 2.015-4.021 4.032c1.083 2.218 2.687 3.512 4.63 5.093h6.944V36.343c-.308-.026-.308-.026-.69.431M9.751 71.137l-.376.511a30 30 0 0 0-2.199 3.584c6.265 9.944 6.265 9.944 15.75 16.063 1.921.323 3.856.416 5.571-.615 2.72-1.949 4.976-4.56 7.238-7.003.896-.961 1.811-1.904 2.725-2.849a425 425 0 0 0 5.29-5.596c-.39-.981-1.109-1.678-1.822-2.434l-.422-.452a329 329 0 0 0-3.92-4.093 171 171 0 0 1-2.62-2.749c-4.031-4.776-4.031-4.776-9.541-7.049-7.182.244-11.832 7.424-15.673 12.682m27.054-12.109c.814.95 1.583 1.843 2.46 2.718l.604.603.638.634.664.663 1.733 1.727q.888.884 1.774 1.769 1.733 1.731 3.469 3.46l.324-.283.432-.374.425-.369c.422-.348.856-.654 1.306-.963 1.069-.785 1.069-.785 2.374-2.64v-6.944zM47.538 79.72l-.456.456-.518.516-.56.565-.578.578-1.214 1.219q-.921.927-1.846 1.85l-1.181 1.184-.553.554c-1.365 1.377-2.663 2.777-3.828 4.329h16.204c.588-6.274.588-6.274-.997-8.635-.616-.573-.616-.573-1.289-1.058l-.657-.574c-1.166-1.209-1.166-1.209-2.528-.985m-20.755 20.513c-3.69 6.264-1.257 16.337.301 22.916 11.193 2.587 11.193 2.587 21.991.463 1.812-1.268 3.822-2.909 4.28-5.164.156-1.375.1-2.739.04-4.118a221 221 0 0 1-.017-1.509c-.015-1.311-.053-2.62-.097-3.931-.041-1.342-.058-2.685-.078-4.027a504 504 0 0 0-.192-7.872 436 436 0 0 0-8.555-.228 192 192 0 0 1-3.974-.104c-7.743-.62-7.743-.62-13.698 3.574m32.245-3.241v16.435c1.306-1.113 1.306-1.113 2.544-2.282l.489-.487.512-.513.542-.541 1.127-1.129q.856-.857 1.714-1.713l1.101-1.102.512-.51a58 58 0 0 0 3.033-3.297l-.283-.323a23 23 0 0 1-1.706-2.164c-.786-1.069-.786-1.069-2.641-2.374zm14.453 10.637-.472.445a390 390 0 0 0-4.295 4.137 204 204 0 0 1-2.888 2.769 151 151 0 0 0-2.789 2.688 51 51 0 0 1-1.066 1.01c-1.583 1.462-2.939 2.751-3.177 4.978-.13 3.381.442 5.59 2.678 8.16a71 71 0 0 0 1.028 1.055l.593.608.564.55.367.391c3.142 3.287 7.253 6.187 11.208 8.405 2.529-1.701 5.032-3.411 7.407-5.324l.363-.29c3.864-3.113 8.145-6.642 8.721-11.883.126-2.543-.808-3.97-2.445-5.792-1.706-1.822-3.52-3.535-5.344-5.238-.956-.9-1.894-1.818-2.835-2.734a360 360 0 0 0-4.139-3.96l-.441-.418c-1.441-1.344-1.749-.785-3.038.443m75.362-43.276h5.787c1.015 1.45 2.002 2.886 2.937 4.384l.725 1.155.369.589a630 630 0 0 0 4.577 7.212l.33.512c.459.751.459.751 1.016 1.427l.211-.334.299-.473.336-.532.75-1.187 1.871-2.963q1.907-3.023 3.825-6.04l.412-.649.391-.614.343-.539c.421-.653.854-1.298 1.284-1.944h5.787v32.176h-6.713l-.231-15.972a617 617 0 0 0-5.324 7.639l-.828 1.21q-1.092 1.589-2.182 3.184c-.751-.317-1.113-.63-1.561-1.307l-.352-.525-.373-.569-.804-1.2-.42-.628c-.816-1.211-1.662-2.401-2.504-3.593-1.031-1.466-2.019-2.952-3.014-4.445l-.231 16.435h-6.713zm132.102-.5.457-.003q.745-.005 1.49-.006l.519-.002q1.361-.005 2.722-.006a517 517 0 0 0 2.785-.013q1.082-.006 2.163-.006l1.025-.006c3.208-.027 6.166.222 8.821 2.164l.59.431c.608.531.992 1.043 1.421 1.725l.408.634c.715 1.36.912 2.677.909 4.198v.518c-.038 1.814-.462 3.474-1.476 4.994.076.756.366 1.14.882 1.678 1.846 2.076 2.244 4.429 2.198 7.144-.232 2.922-1.423 4.904-3.515 6.875-2.03 1.689-4.514 2.204-7.1 2.179h-.571q-.903-.001-1.806-.007l-1.125-.001q-2.07-.004-4.141-.015l-9.36-.031V64.12a13.3 13.3 0 0 1 2.704-.269m4.009 6.751v5.787q2.144.017 4.288.025l1.458.009q1.049.008 2.098.01l.657.007c1.245 0 2.245-.025 3.247-.848.624-.78.598-1.656.586-2.609-.102-.832-.437-1.305-.991-1.919-1.102-.628-2.269-.522-3.498-.508l-.68.002q-1.072.005-2.144.014l-1.456.006q-1.782.008-3.564.023m0 12.5v6.481q2.527.05 5.054.076.859.01 1.718.028 1.237.024 2.474.031l.773.022c1.463.001 2.302-.146 3.356-1.195.603-.747.71-1.495.746-2.434-.194-1.294-.63-1.936-1.62-2.778-.58-.29-.972-.259-1.62-.258h-.73l-.791.004-.808.001q-1.28.002-2.561.007l-1.733.003q-2.129.004-4.256.011m-61.114-18.98c4.398 0 4.398 0 5.44.839a37 37 0 0 1 .81 1.245c.399.53.816 1.045 1.23 1.563l.656.843a70 70 0 0 0 1.934 2.34 82 82 0 0 1 2.532 3.111 90 90 0 0 0 3.075 3.723 99 99 0 0 1 2.842 3.467l1.852 2.315.231-19.444h6.713v32.407c-4.167 0-4.167 0-5.454-1.114a43 43 0 0 1-1.028-1.433 97 97 0 0 0-1.042-1.273l-.514-.637a51 51 0 0 0-1.685-1.91 64 64 0 0 1-2.713-3.183 51 51 0 0 0-1.685-1.91 63 63 0 0 1-2.707-3.177c-.752-.906-1.546-1.768-2.347-2.631-.501-.557-.501-.557-1.196-1.483l-.231 18.75h-6.713zm148.842-.463v32.407c-4.398 0-4.398 0-5.413-.619-.336-.403-.336-.403-.635-.842l-.357-.447a30 30 0 0 1-.69-.905c-.441-.602-.921-1.171-1.398-1.744l-.495-.618a45 45 0 0 0-1.661-1.885 64 64 0 0 1-2.713-3.183 51 51 0 0 0-1.685-1.91 57 57 0 0 1-2.663-3.126c-.857-1.029-1.766-2.013-2.661-3.008l-.231 18.519h-6.713V63.889c4.398 0 4.398 0 5.584 1.114a55 55 0 0 1 .898 1.432q.51.645 1.042 1.273l.525.641 1.005 1.228a1288 1288 0 0 1 3.492 4.285 766 766 0 0 0 3.697 4.523c1.404 1.707 2.762 3.44 4.129 5.179l.231-19.676c2.235-.14 4.474-.231 6.713-.231m7.175 0h6.713V76.62c1.303-.395 1.303-.395 2.185-1.186l.418-.443a120 120 0 0 0 1.518-1.731c.677-.764 1.374-1.508 2.072-2.253a397 397 0 0 0 2.995-3.226l.588-.625c.434-.472.781-.922 1.15-1.454 1.381-1.859 1.381-1.859 2.551-2.191 1.424-.199 2.846-.108 4.275-.028q.652.021 1.303.038c1.057.03 2.112.078 3.167.136l-.289.337-.379.442-.376.439-.761.892c-.882 1.026-1.817 1.981-2.781 2.931a28 28 0 0 0-1.316 1.441 33 33 0 0 1-1.852 1.968 38 38 0 0 0-2.226 2.408 35 35 0 0 1-1.608 1.643 20.4 20.4 0 0 0-2.532 3.009l.449.441c1.834 1.815 1.834 1.815 2.603 2.727.822.963 1.72 1.844 2.619 2.734 1.01 1.001 1.992 2.002 2.909 3.09.796.886 1.656 1.71 2.502 2.548a40 40 0 0 1 2.437 2.624c.587.666 1.231 1.274 1.874 1.886.348.385.348.385.348.848-7.52 1.06-7.52 1.06-10.22-.825-1.812-1.436-3.332-3.201-4.826-4.956-1.038-1.207-2.12-2.374-3.199-3.545a54 54 0 0 1-1.083-1.242l-.672-.758-.575-.671c-.925-.733-.925-.733-3.268-.734v12.731h-6.713zm-57.839.206.643.004.694.002.73.006.733.003q.899.004 1.799.011c4.173 8.977 4.173 8.977 6.134 13.31a933 933 0 0 0 3.718 8.1l1.672 3.605 1.164 2.509q.508 1.095 1.012 2.192l.283.608c.6 1.309.6 1.309.6 2.083h-7.407l-1.634-3.421-.31-.648-.316-.661a118 118 0 0 0-.75-1.52l-13.657-.231-.231 1.157a22 22 0 0 1-.572 1.219l-.343.682-.359.703-.359.714c-.879 1.738-.879 1.738-1.146 2.006q-.797.028-1.592.023l-.481-.001-1.528-.007-1.034-.003q-1.27-.004-2.54-.011c.544-1.818 1.32-3.51 2.118-5.226q.626-1.35 1.246-2.7l.26-.564c.909-1.979 1.79-3.97 2.67-5.963a417 417 0 0 1 3.702-8.148 340 340 0 0 0 2.014-4.386l.227-.505q.549-1.22 1.095-2.442l.394-.877.35-.782c.383-.807.383-.807 1.001-.84M323.843 75l-1.484 3.35-.505 1.141-.724 1.636-.23.518c-.368.704-.368.704-.529 1.458h7.407c-1.744-4.102-1.744-4.102-3.704-8.102zM125.031 64.326l.643.004.694.002.73.006.733.003q.899.004 1.799.011l.253.558a1684 1684 0 0 0 5.801 12.678l.794 1.719c2.106 4.558 4.212 9.116 6.275 13.693l.399.883q.272.6.541 1.2l.306.68c.214.533.214.533.214.996h-7.407l-3.009-6.25-13.657-.231-.694 2.083a19 19 0 0 1-.574 1.166l-.28.525-.347.638-1.115 2.069h-7.176c.444-1.333.859-2.511 1.442-3.766l.216-.467q.229-.497.46-.993.626-1.35 1.246-2.7l.26-.564c.909-1.979 1.79-3.97 2.67-5.963a417 417 0 0 1 3.702-8.148 340 340 0 0 0 2.014-4.386l.227-.505q.549-1.22 1.095-2.442l.394-.877.35-.782c.383-.807.383-.807 1.001-.84m1.821 11.137-1.484 3.35-.505 1.141-.724 1.636-.23.518c-.368.704-.368.704-.529 1.458h7.407a473 473 0 0 0-3.704-8.102zm72.947-11.369.643.004.694.002.73.006.733.003q.899.004 1.799.011l4.444 9.673.246.536 4.715 10.263.997 2.172a777 777 0 0 0 2.267 4.901l.397.851q.363.777.729 1.552l.318.681.277.588c.194.496.194.496.194 1.191h-7.407l-3.009-6.25H195.14l-3.009 6.25h-7.407c.48-1.439.975-2.767 1.619-4.127l.268-.574q.283-.606.568-1.211.752-1.602 1.498-3.208l.3-.644a340 340 0 0 0 2.388-5.253 766 766 0 0 1 3.579-7.896 393 393 0 0 0 3.394-7.597l.288-.662.248-.575c.307-.654.307-.654.926-.687m1.821 11.138-1.689 3.89-.617 1.422-.192.442a89 89 0 0 0-.975 2.347h7.407l-1.098-2.465a185 185 0 0 1-1.221-2.795l-.22-.513a133 133 0 0 1-.41-.971c-.314-.833-.314-.833-.986-1.358" fill="#FFF"/>
  <path d="M105.556 64.352c-.13.754-.303 1.386-.646 2.069l-.258.519-.281.554-.294.586q-.309.616-.62 1.231l-.924 1.836a296 296 0 0 1-2.972 5.773c-1.374 2.593-2.679 5.219-3.987 7.846l-2.518 5.049 12.269.231v6.713l-24.537.231c.185-.927.324-1.421.748-2.215l.327-.619.358-.667.76-1.438.404-.762c.695-1.317 1.378-2.641 2.062-3.963a763 763 0 0 1 3.001-5.742q.896-1.702 1.778-3.412l.233-.451q.575-1.113 1.147-2.226a122 122 0 0 1 2.376-4.43l-.528.021c-3.917.154-7.82.234-11.741.21v-6.713l6.25-.091 2.905-.042c4.896-.072 9.791-.117 14.688-.099" fill="#FFF"/>
</svg>
