<svg width="452" height="150" viewBox="0 0 452 150" fill="none" xmlns="http://www.w3.org/2000/svg">
<mask id="mask0_1_14" style="mask-type:luminance" maskUnits="userSpaceOnUse" x="0" y="0" width="452" height="150">
<path d="M451.409 0H0V149.211H451.409V0Z" fill="white"/>
</mask>
<g mask="url(#mask0_1_14)">
<path d="M155.074 94.4965L189.718 54.0893H154.162V41.0303H207.706V53.5424L173.063 93.9497H207.706V107.009H155.074V94.4965Z" fill="white"/>
<path d="M281.792 40.7273V107.321H268.668L268.534 98.4329C263.538 104.928 254.877 108.825 244.884 108.825C225.829 108.825 212.705 94.5355 212.705 74.0242C212.705 53.5127 225.829 39.2231 244.884 39.2231C255.01 39.2231 263.538 43.1203 268.534 49.6156L268.668 40.7273H281.792ZM267.069 73.956C267.069 61.5807 258.941 52.9658 247.215 52.9658C235.557 52.9658 227.362 61.5807 227.362 73.956C227.362 86.3311 235.49 94.9456 247.215 94.9456C258.941 95.0139 267.069 86.3996 267.069 73.956Z" fill="white"/>
<path d="M362.817 73.956C362.817 94.4672 349.693 108.757 330.638 108.757C321.578 108.757 313.583 105.543 308.453 100.006V138.02H293.73V40.7273H306.854L306.987 49.6156C311.984 43.1203 320.645 39.2231 330.638 39.2231C349.693 39.2231 362.817 53.5128 362.817 73.956ZM348.093 73.956C348.093 61.5807 339.966 52.9658 328.24 52.9658C316.713 52.9658 308.387 61.5807 308.387 73.956C308.387 86.3311 316.648 94.9456 328.24 94.9456C339.966 95.0139 348.093 86.3996 348.093 73.956Z" fill="white"/>
<path d="M371.942 108.179V40.8336H386.133V108.179H371.942Z" fill="white"/>
<path d="M423.978 110.372C420.047 110.372 416.517 109.826 413.32 108.731C410.188 107.638 407.39 106.27 405.058 104.492C402.727 102.715 400.727 100.732 399.062 98.4755C397.462 96.2192 396.197 93.8947 395.33 91.5018L408.455 85.8266C409.92 89.724 412.119 92.5269 414.917 94.3731C417.715 96.2192 420.714 97.1077 423.978 97.1077C427.643 97.1077 430.574 96.3559 432.639 94.7831C434.772 93.2796 435.771 91.5701 435.771 89.6556C435.771 87.741 434.971 86.1002 433.439 84.7327C431.839 83.3653 428.908 82.1347 424.511 81.0407L415.318 78.716C413.32 78.2373 411.253 77.5536 409.188 76.5965C407.122 75.6393 405.257 74.4086 403.459 72.9728C401.727 71.4686 400.261 69.691 399.195 67.5715C398.128 65.4519 397.529 62.9906 397.529 60.1189C397.529 56.9056 398.196 54.0339 399.595 51.5042C400.927 48.9744 402.792 46.8549 405.191 45.1456C407.523 43.4363 410.321 42.1372 413.385 41.2484C416.517 40.3596 419.781 39.881 423.312 39.881C426.176 39.881 428.975 40.2228 431.64 40.8382C434.305 41.4535 436.77 42.4108 439.035 43.6415C441.3 44.8721 443.366 46.5131 445.164 48.4274C446.963 50.3419 448.363 52.5981 449.428 55.2645L436.571 60.8027C435.371 57.9311 433.439 55.8115 430.775 54.5125C428.176 53.2134 425.444 52.5297 422.779 52.5297C421.58 52.5297 420.315 52.6665 419.048 53.0083C417.782 53.3502 416.65 53.7605 415.651 54.3758C414.652 54.9911 413.785 55.6748 413.186 56.6319C412.52 57.5208 412.186 58.5464 412.186 59.5719C412.186 61.3497 412.919 62.7854 414.452 63.8111C415.984 64.8367 418.315 65.7938 421.447 66.5459L431.307 69.0756C437.969 70.7849 442.833 73.383 445.964 76.8017C449.095 80.2886 450.628 84.3226 450.628 88.9713C450.628 91.8435 449.962 94.5098 448.695 97.0394C447.429 99.569 445.631 101.825 443.233 103.808C440.902 105.791 438.037 107.364 434.772 108.458C431.574 109.826 427.909 110.372 423.978 110.372Z" fill="white"/>
<path fill-rule="evenodd" clip-rule="evenodd" d="M120.409 61.6166C120.34 75.0134 115.936 87.3636 108.643 97.4111C100.558 107.578 90.2465 118.421 80.8698 128.283C74.0088 135.499 67.6479 142.187 63.0255 147.701C61.2366 149.725 58.0716 149.725 56.3514 147.632C52.0796 142.416 46.2563 136.226 39.9433 129.514C30.2925 119.254 19.4977 107.778 11.3536 96.7135L11.2847 96.6434C4.19791 86.596 0.000854492 74.3157 0.000854492 61.0584C0.000854492 27.078 27.4537 -0.483008 61.099 0.00541647C94.0561 0.493841 120.752 28.1945 120.409 61.6166ZM84.8548 56.1616C86.1799 56.967 86.2215 58.9131 84.9321 59.7768L65.1616 73.0201C64.2915 73.6029 63.9747 74.7523 64.4193 75.7139L73.7327 95.8561C74.6118 97.7573 72.5518 99.6735 70.7829 98.5996L35.6236 77.2534C34.2977 76.4486 34.2557 74.5017 35.5455 73.6378L55.3128 60.3966C56.1838 59.8133 56.5002 58.6624 56.0541 57.7007L46.6895 37.5035C45.8075 35.6015 47.8693 33.6826 49.6389 34.7583L84.8548 56.1616Z" fill="white"/>
</g>
</svg>
